<?xml version="1.0" encoding="utf-8"?>
<!-- Generator: Adobe Illustrator 22.0.1, SVG Export Plug-In . SVG Version: 6.00 Build 0)  -->
<svg version="1.1" id="Layer_1" xmlns:ev="http://www.w3.org/2001/xml-events"
	 xmlns="http://www.w3.org/2000/svg" xmlns:xlink="http://www.w3.org/1999/xlink" x="0px" y="0px" viewBox="0 0 318.6 318.6"
	 style="enable-background:new 0 0 318.6 318.6;" xml:space="preserve">
<style type="text/css">
	.st0{fill:#E2761B;stroke:#E2761B;stroke-linecap:round;stroke-linejoin:round;}
	.st1{fill:#E4761B;stroke:#E4761B;stroke-linecap:round;stroke-linejoin:round;}
	.st2{fill:#D7C1B3;stroke:#D7C1B3;stroke-linecap:round;stroke-linejoin:round;}
	.st3{fill:#233447;stroke:#233447;stroke-linecap:round;stroke-linejoin:round;}
	.st4{fill:#CD6116;stroke:#CD6116;stroke-linecap:round;stroke-linejoin:round;}
	.st5{fill:#E4751F;stroke:#E4751F;stroke-linecap:round;stroke-linejoin:round;}
	.st6{fill:#F6851B;stroke:#F6851B;stroke-linecap:round;stroke-linejoin:round;}
	.st7{fill:#C0AD9E;stroke:#C0AD9E;stroke-linecap:round;stroke-linejoin:round;}
	.st8{fill:#161616;stroke:#161616;stroke-linecap:round;stroke-linejoin:round;}
	.st9{fill:#763D16;stroke:#763D16;stroke-linecap:round;stroke-linejoin:round;}
</style>
<polygon class="st0" points="301.3,7.5 178.2,98.9 201,45 "/>
<g>
	<polygon class="st1" points="17.2,7.5 139.3,99.8 117.6,45 	"/>
	<polygon class="st1" points="257,219.4 224.2,269.6 294.4,288.9 314.5,220.5 	"/>
	<polygon class="st1" points="4.2,220.5 24.2,288.9 94.4,269.6 61.6,219.4 	"/>
	<polygon class="st1" points="90.4,134.5 70.9,164.1 140.5,167.2 138,92.4 	"/>
	<polygon class="st1" points="228.1,134.5 179.8,91.5 178.2,167.2 247.7,164.1 	"/>
	<polygon class="st1" points="94.4,269.6 136.2,249.2 100.1,221 	"/>
	<polygon class="st1" points="182.3,249.2 224.2,269.6 218.4,221 	"/>
</g>
<g>
	<polygon class="st2" points="224.2,269.6 182.3,249.2 185.6,276.5 185.3,288 	"/>
	<polygon class="st2" points="94.4,269.6 133.3,288 133.1,276.5 136.2,249.2 	"/>
</g>
<polygon class="st3" points="133.9,202.9 99.1,192.7 123.7,181.4 "/>
<polygon class="st3" points="184.5,202.9 194.8,181.4 219.5,192.7 "/>
<g>
	<polygon class="st4" points="94.4,269.6 100.3,219.4 61.6,220.5 	"/>
	<polygon class="st4" points="218.3,219.4 224.2,269.6 257,220.5 	"/>
	<polygon class="st4" points="247.7,164.1 178.2,167.2 184.7,202.9 194.9,181.4 219.7,192.7 	"/>
	<polygon class="st4" points="99.1,192.7 123.8,181.4 133.9,202.9 140.5,167.2 70.9,164.1 	"/>
</g>
<g>
	<polygon class="st5" points="70.9,164.1 100.1,221 99.1,192.7 	"/>
	<polygon class="st5" points="219.7,192.7 218.4,221 247.7,164.1 	"/>
	<polygon class="st5" points="140.5,167.2 133.9,202.9 142.1,245.1 144,189.6 	"/>
	<polygon class="st5" points="178.2,167.2 174.9,189.4 176.4,245.1 184.7,202.9 	"/>
</g>
<polygon class="st6" points="184.7,202.9 176.4,245.1 182.3,249.2 218.4,221 219.7,192.7 "/>
<polygon class="st6" points="99.1,192.7 100.1,221 136.2,249.2 142.1,245.1 133.9,202.9 "/>
<polygon class="st7" points="185.3,288 185.6,276.5 182.6,273.8 135.9,273.8 133.1,276.5 133.3,288 94.4,269.6 108,280.7 
	135.6,299.9 182.9,299.9 210.6,280.7 224.2,269.6 "/>
<polygon class="st8" points="182.3,249.2 176.4,245.1 142.1,245.1 136.2,249.2 133.1,276.5 135.9,273.8 182.6,273.8 185.6,276.5 "/>
<g>
	<polygon class="st9" points="306.5,104.8 317,54.4 301.3,7.5 182.3,95.8 228.1,134.5 292.8,153.5 307.1,136.8 300.9,132.3 
		310.8,123.3 303.1,117.3 313,109.8 	"/>
	<polygon class="st9" points="1.6,54.4 12.1,104.8 5.4,109.8 15.3,117.3 7.8,123.3 17.7,132.3 11.5,136.8 25.7,153.5 90.4,134.5 
		136.2,95.8 17.2,7.5 	"/>
</g>
<polygon class="st6" points="292.8,153.5 228.1,134.5 247.7,164.1 218.4,221 257,220.5 314.5,220.5 "/>
<polygon class="st6" points="90.4,134.5 25.7,153.5 4.2,220.5 61.6,220.5 100.1,221 70.9,164.1 "/>
<polygon class="st6" points="178.2,167.2 182.3,95.8 201.1,45 117.6,45 136.2,95.8 140.5,167.2 142,189.7 142.1,245.1 176.4,245.1 
	176.6,189.7 "/>
</svg>
