<?xml version="1.0" encoding="utf-8"?>
<!-- Generator: Adobe Illustrator 22.0.1, SVG Export Plug-In . SVG Version: 6.00 Build 0)  -->
<svg version="1.1" id="Capa_1" xmlns="http://www.w3.org/2000/svg" xmlns:xlink="http://www.w3.org/1999/xlink" x="0px" y="0px"
	 viewBox="0 0 1375.5 350.3" style="enable-background:new 0 0 1375.5 350.3;" xml:space="preserve">
<style type="text/css">
	.st0{clip-path:url(#SVGID_2_);}
	.st1{clip-path:url(#SVGID_4_);enable-background:new    ;}
	.st2{clip-path:url(#SVGID_6_);}
	.st3{clip-path:url(#SVGID_8_);}
	.st4{clip-path:url(#SVGID_10_);fill:#B3332C;}
	.st5{clip-path:url(#SVGID_12_);}
	.st6{clip-path:url(#SVGID_14_);fill:#213443;}
	.st7{clip-path:url(#SVGID_16_);}
	.st8{clip-path:url(#SVGID_18_);fill:#213443;}
	.st9{clip-path:url(#SVGID_20_);}
	.st10{clip-path:url(#SVGID_22_);fill:#213443;}
	.st11{clip-path:url(#SVGID_24_);}
	.st12{clip-path:url(#SVGID_26_);fill:#213443;}
	.st13{clip-path:url(#SVGID_28_);}
	.st14{clip-path:url(#SVGID_30_);fill:#213443;}
	.st15{clip-path:url(#SVGID_32_);}
	.st16{clip-path:url(#SVGID_34_);fill:#213443;}
	.st17{clip-path:url(#SVGID_36_);}
	.st18{clip-path:url(#SVGID_38_);fill:#213443;}
	.st19{clip-path:url(#SVGID_40_);}
	.st20{clip-path:url(#SVGID_42_);fill:#213443;}
	.st21{clip-path:url(#SVGID_44_);}
	.st22{clip-path:url(#SVGID_46_);fill:#213443;}
	.st23{clip-path:url(#SVGID_48_);}
	.st24{clip-path:url(#SVGID_50_);fill:#213443;}
	.st25{clip-path:url(#SVGID_52_);}
	.st26{clip-path:url(#SVGID_54_);fill:#213443;}
	.st27{fill:#213443;}
</style>
<g>
	<g>
		<defs>
			<rect id="SVGID_1_" x="338.8" y="3" width="531.3" height="274.1"/>
		</defs>
		<clipPath id="SVGID_2_">
			<use xlink:href="#SVGID_1_"  style="overflow:visible;"/>
		</clipPath>
		<g class="st0">
			<defs>
				<rect id="SVGID_3_" x="-75.3" y="-206.4" width="4734.7" height="3551"/>
			</defs>
			<clipPath id="SVGID_4_">
				<use xlink:href="#SVGID_3_"  style="overflow:visible;"/>
			</clipPath>
			<g class="st1">
				<g>
					<defs>
						<rect id="SVGID_5_" x="336.2" y="1.6" width="536.3" height="277.4"/>
					</defs>
					<clipPath id="SVGID_6_">
						<use xlink:href="#SVGID_5_"  style="overflow:visible;"/>
					</clipPath>
					<g class="st2">
						<defs>
							<path id="SVGID_7_" d="M651,201.2c0,0-0.1,0.1-0.1,0.1c-32.5,23-71,47.2-112.5,72.6l-1.6,1c-0.6,0.4-0.7,1.2-0.3,1.7
								c0.4,0.6,1.2,0.7,1.7,0.3l1.4-0.7c35.1-18.3,75.5-40.1,116.1-62.5c0.2-0.1,0.4-0.2,0.7-0.4
								C654.1,209.6,652.3,205.6,651,201.2z M864.4,28.4c-51.3-56.5-381.1-5.7-521.3,25l-3.3,0.7c-0.7,0.1-1.1,0.8-1,1.4
								c0.1,0.7,0.8,1.1,1.4,1l3.2-0.6c116.2-20.7,357.8-49.4,409.8,2.2c15.9,15.7,12.1,36-6.3,59.9c9.9,6.4,17,16.4,20.2,28.9
								C839,99.2,887.3,53.6,864.4,28.4z"/>
						</defs>
						<clipPath id="SVGID_8_">
							<use xlink:href="#SVGID_7_"  style="overflow:visible;"/>
						</clipPath>
						<g class="st3">
							<defs>
								<rect id="SVGID_9_" x="336.2" y="1.6" width="536.3" height="277.4"/>
							</defs>
							<clipPath id="SVGID_10_">
								<use xlink:href="#SVGID_9_"  style="overflow:visible;"/>
							</clipPath>
							<rect x="315.7" y="-20.1" class="st4" width="577.6" height="320.3"/>
						</g>
					</g>
				</g>
			</g>
		</g>
	</g>
	<g>
		<defs>
			<path id="SVGID_11_" d="M671.7,186.4c0.7,19.9,13.2,36.2,29.7,36.2c31.8,0,45.4-39.1,44.4-65.2c-0.7-19.9-13.6-36.2-30-36.2
				C688.5,121.2,670.8,160.1,671.7,186.4z M654.9,185.3c-1.2-33.9,25.4-68.7,64.1-68.7c25.8,0,42.7,17.2,43.7,43.6
				c1.2,35.8-23.6,68.7-64.1,68.7C672.8,228.9,655.9,211.7,654.9,185.3z"/>
		</defs>
		<use xlink:href="#SVGID_11_"  style="overflow:visible;fill-rule:evenodd;clip-rule:evenodd;fill:#213443;"/>
		<clipPath id="SVGID_12_">
			<use xlink:href="#SVGID_11_"  style="overflow:visible;"/>
		</clipPath>
		<g class="st5">
			<defs>
				<rect id="SVGID_13_" x="-75.3" y="-206.4" width="4734.7" height="3551"/>
			</defs>
			<use xlink:href="#SVGID_13_"  style="overflow:visible;fill:#213443;"/>
			<clipPath id="SVGID_14_">
				<use xlink:href="#SVGID_13_"  style="overflow:visible;"/>
			</clipPath>
			<rect x="631.8" y="93.5" class="st6" width="154.1" height="158.5"/>
		</g>
	</g>
	<g>
		<defs>
			<path id="SVGID_15_" d="M289,176.3c-1.4,0.5-3.2,1-5.4,1.5c-2.2,0.5-6.2,1.2-12.1,2.1c-4,0.6-6.8,1.5-8.4,2.6
				c-1.5,1.1-2.4,2.5-2.7,4.1c-0.3,1.8,0.3,3.2,1.8,4.2c1.5,1.1,4.1,1.6,7.8,1.6c2.7,0,5.4-0.4,8-1.3c2.6-0.9,4.8-2,6.6-3.5
				c1.2-1.1,2.1-2.5,2.8-4.1C287.8,182.6,288.3,180.2,289,176.3z M322.6,155.4c-0.1,3.1-0.7,5.9-1.5,10.6l-5.7,31.9
				c-0.5,2.8,0.6,5.1,3.2,6.6l-0.2,1.2l-32.5,0l-0.3-8.1c-4.7,2.9-10.5,5.3-15.6,6.7c-5.2,1.3-9.3,1.9-15.6,1.9
				c-10.5,0-16.5-1.1-20.7-4.7c-4.2-3.8-6.3-6.2-6.1-11.4c0.2-3,1.7-6.8,3.9-9.5c2.3-2.7,5.3-4.5,8.7-6c3.4-1.6,7.3-2.8,13.1-3.7
				c5.8-0.9,13.8-1.9,24.5-2.8c5.6-0.5,9.1-1.8,10.7-2.4c2.2-0.9,3.1-1.8,3.4-3.7c0.6-3.3-0.4-5.1-4.8-6c-11.7-2.3-33.7,1.5-45,4.3
				l6.2-16.6c14.9-2.2,28.9-3.6,43.7-3.6C315.3,140.2,322.8,146.9,322.6,155.4z"/>
		</defs>
		<use xlink:href="#SVGID_15_"  style="overflow:visible;fill-rule:evenodd;clip-rule:evenodd;fill:#213443;"/>
		<clipPath id="SVGID_16_">
			<use xlink:href="#SVGID_15_"  style="overflow:visible;"/>
		</clipPath>
		<g class="st7">
			<defs>
				<rect id="SVGID_17_" x="-75.3" y="-206.4" width="4734.7" height="3551"/>
			</defs>
			<use xlink:href="#SVGID_17_"  style="overflow:visible;fill:#213443;"/>
			<clipPath id="SVGID_18_">
				<use xlink:href="#SVGID_17_"  style="overflow:visible;"/>
			</clipPath>
			<rect x="204.5" y="117.1" class="st8" width="141.2" height="112.3"/>
		</g>
	</g>
	<g>
		<defs>
			<path id="SVGID_19_" d="M416.9,205.8l11.3-63.7h31.1L448,205.8H416.9z M429.9,127.3c0.9-5.2,9.2-9.5,18.4-9.5
				c9.3,0,16,4.3,15.1,9.5c-1,5.2-9.2,9.5-18.5,9.5C435.7,136.8,428.9,132.5,429.9,127.3z"/>
		</defs>
		<use xlink:href="#SVGID_19_"  style="overflow:visible;fill-rule:evenodd;clip-rule:evenodd;fill:#213443;"/>
		<clipPath id="SVGID_20_">
			<use xlink:href="#SVGID_19_"  style="overflow:visible;"/>
		</clipPath>
		<g class="st9">
			<defs>
				<rect id="SVGID_21_" x="-75.3" y="-206.4" width="4734.7" height="3551"/>
			</defs>
			<use xlink:href="#SVGID_21_"  style="overflow:visible;fill:#213443;"/>
			<clipPath id="SVGID_22_">
				<use xlink:href="#SVGID_21_"  style="overflow:visible;"/>
			</clipPath>
			<rect x="393.8" y="94.7" class="st10" width="92.9" height="134.2"/>
		</g>
	</g>
	<g>
		<defs>
			<path id="SVGID_23_" d="M569.9,176.5c-1.4,0.5-3.2,1-5.4,1.5c-2.2,0.5-6.2,1.2-12.1,2.1c-4,0.6-6.8,1.5-8.4,2.6
				c-1.5,1.1-2.4,2.5-2.7,4.1c-0.3,1.8,0.3,3.2,1.8,4.2c1.6,1.1,4.2,1.6,7.8,1.6c2.7,0,5.4-0.4,8-1.2c2.7-0.9,4.9-2,6.6-3.5
				c1.2-1.1,2.1-2.5,2.8-4.1C568.7,182.8,569.2,180.3,569.9,176.5z M603.5,155.6c-0.1,3.1-0.7,5.9-1.5,10.6l-5.6,31.9
				c-0.5,2.8,0.6,5,3.2,6.6l-0.2,1.1l-32.5,0.1l-0.3-8.1c-4.8,2.9-10.5,5.3-15.6,6.7c-5.2,1.4-9.4,1.9-15.6,1.9
				c-10.5,0-16.5-1.1-20.6-4.7c-4.2-3.8-6.3-6.2-6.1-11.4c0.1-3,1.7-6.8,3.9-9.5c2.2-2.7,5.3-4.5,8.7-6.1c3.4-1.6,7.3-2.7,13-3.7
				c5.8-0.9,13.8-1.9,24.5-2.8c5.6-0.5,9-1.7,10.6-2.4c2.3-0.9,3.2-1.9,3.5-3.7c0.6-3.2-0.4-5.1-4.8-6c-11.8-2.3-33.7,1.5-45,4.3
				l6.1-16.6c15-2.2,28.9-3.6,43.7-3.6C596.2,140.3,603.7,147,603.5,155.6z"/>
		</defs>
		<use xlink:href="#SVGID_23_"  style="overflow:visible;fill-rule:evenodd;clip-rule:evenodd;fill:#213443;"/>
		<clipPath id="SVGID_24_">
			<use xlink:href="#SVGID_23_"  style="overflow:visible;"/>
		</clipPath>
		<g class="st11">
			<defs>
				<rect id="SVGID_25_" x="-75.3" y="-206.4" width="4734.7" height="3551"/>
			</defs>
			<use xlink:href="#SVGID_25_"  style="overflow:visible;fill:#213443;"/>
			<clipPath id="SVGID_26_">
				<use xlink:href="#SVGID_25_"  style="overflow:visible;"/>
			</clipPath>
			<rect x="485.4" y="117.2" class="st12" width="141.2" height="112.3"/>
		</g>
	</g>
	<g>
		<defs>
			<path id="SVGID_27_" d="M223.3,182.9c-10.1,2-15.8,2.8-25.9,2.8c-14.9,0-26.7-7.4-26.1-20.9c0.5-9,11.1-28.1,38.3-28.1
				c8.5,0,15.2,1.5,24.2,6.6l3.9-22.1c-12.2-4.6-20.3-5.3-30.8-5.2c-35.6,0.4-69.8,16.6-74,49.5c-4.3,33.4,36.5,41.8,54.6,41.8
				c10.5,0,21.3-0.5,31.5-1.5L223.3,182.9"/>
		</defs>
		<use xlink:href="#SVGID_27_"  style="overflow:visible;fill-rule:evenodd;clip-rule:evenodd;fill:#213443;"/>
		<clipPath id="SVGID_28_">
			<use xlink:href="#SVGID_27_"  style="overflow:visible;"/>
		</clipPath>
		<g class="st13">
			<defs>
				<rect id="SVGID_29_" x="-75.3" y="-206.4" width="4734.7" height="3551"/>
			</defs>
			<use xlink:href="#SVGID_29_"  style="overflow:visible;fill:#213443;"/>
			<clipPath id="SVGID_30_">
				<use xlink:href="#SVGID_29_"  style="overflow:visible;"/>
			</clipPath>
			<rect x="109.6" y="92.8" class="st14" width="151.4" height="137.5"/>
		</g>
	</g>
	<g>
		<defs>
			<path id="SVGID_31_" d="M476.5,141.7l2.2-13l32.6-7.1l-3.5,20.1h16l-3,12.8l-15.5,0l-9.4,51.2c0,0-31.4-0.2-31.5,0l9.4-51.1
				h-11.8l2.4-12.9H476.5"/>
		</defs>
		<use xlink:href="#SVGID_31_"  style="overflow:visible;fill-rule:evenodd;clip-rule:evenodd;fill:#213443;"/>
		<clipPath id="SVGID_32_">
			<use xlink:href="#SVGID_31_"  style="overflow:visible;"/>
		</clipPath>
		<g class="st15">
			<defs>
				<rect id="SVGID_33_" x="-75.3" y="-206.4" width="4734.7" height="3551"/>
			</defs>
			<use xlink:href="#SVGID_33_"  style="overflow:visible;fill:#213443;"/>
			<clipPath id="SVGID_34_">
				<use xlink:href="#SVGID_33_"  style="overflow:visible;"/>
			</clipPath>
			<rect x="438.8" y="98.5" class="st16" width="108.1" height="130.3"/>
		</g>
	</g>
	<g>
		<defs>
			<polyline id="SVGID_35_" points="635.1,205.7 603.4,205.8 619.4,116.9 650.3,117.7 635.1,205.7 			"/>
		</defs>
		<use xlink:href="#SVGID_35_"  style="overflow:visible;fill-rule:evenodd;clip-rule:evenodd;fill:#213443;"/>
		<clipPath id="SVGID_36_">
			<use xlink:href="#SVGID_35_"  style="overflow:visible;"/>
		</clipPath>
		<g class="st17">
			<defs>
				<rect id="SVGID_37_" x="-75.3" y="-206.4" width="4734.7" height="3551"/>
			</defs>
			<use xlink:href="#SVGID_37_"  style="overflow:visible;fill:#213443;"/>
			<clipPath id="SVGID_38_">
				<use xlink:href="#SVGID_37_"  style="overflow:visible;"/>
			</clipPath>
			<rect x="580.3" y="93.8" class="st18" width="93.1" height="135.1"/>
		</g>
	</g>
	<g>
		<defs>
			<path id="SVGID_39_" d="M375.7,157c-4.1,0-7.8,1.2-11.1,3.7c-3.2,2.5-5.3,6.1-6.2,10.9c-1,5.6-0.4,9.6,1.8,12
				c2.2,2.4,5.4,3.7,9.6,3.7c2.8,0,5.8-0.5,7.9-1.6c2.7-1.4,4.5-2.9,6.1-5.2c1.7-2.5,2.9-5.2,3.4-8.4c0.9-5,0.1-8.8-2.2-11.3
				C382.9,158.3,379.7,157,375.7,157z M319,227.8l15.2-85.4h27.4l-2.1,10.9c2.4-3.3,6.2-5.9,11.4-8.1c5.3-2.2,11.2-3.8,17.7-3.8
				c7.1,0,11.5,0.4,16.9,3.2c5.3,2.8,9,6.8,11,12.1c2,5.2,2.5,11,1.4,17.3c-1.8,10.5-7,18.8-15.4,24.9c-8.4,6.1-15.9,7.7-26.6,7.7
				c-3.8,0-7-0.4-9.6-1c-2.6-0.7-4.6-1.5-6.2-2.5c-1.5-1-3.1-2.4-5.1-4.6l-5.1,29.3H319z"/>
		</defs>
		<use xlink:href="#SVGID_39_"  style="overflow:visible;fill-rule:evenodd;clip-rule:evenodd;fill:#213443;"/>
		<clipPath id="SVGID_40_">
			<use xlink:href="#SVGID_39_"  style="overflow:visible;"/>
		</clipPath>
		<g class="st19">
			<defs>
				<rect id="SVGID_41_" x="-75.3" y="-206.4" width="4734.7" height="3551"/>
			</defs>
			<use xlink:href="#SVGID_41_"  style="overflow:visible;fill:#213443;"/>
			<clipPath id="SVGID_42_">
				<use xlink:href="#SVGID_41_"  style="overflow:visible;"/>
			</clipPath>
			<rect x="295.8" y="118.3" class="st20" width="145.6" height="132.6"/>
		</g>
	</g>
	<g>
		<defs>
			<path id="SVGID_43_" d="M884.4,164.8c-0.2-5.1-2.8-8.6-8.1-8.6c-12.8,0-26.4,25-28.7,35.1C868.6,191.3,885,178.9,884.4,164.8z
				 M887.2,204l2.5,1.7c-6.2,12.7-18.9,22.9-33.8,22.9c-12.2,0-22.2-8.1-22.7-23.4c-1-27.3,24.6-52.7,45.6-52.7
				c9,0,17.3,3.9,17.7,13.6c0.8,21.7-29.7,28.4-49.8,28.8c-0.7,2.3-0.9,4.6-0.8,8c0.3,9,5.8,16.6,17,16.6
				C872.5,219.6,882.3,211.8,887.2,204z"/>
		</defs>
		<use xlink:href="#SVGID_43_"  style="overflow:visible;fill-rule:evenodd;clip-rule:evenodd;fill:#213443;"/>
		<clipPath id="SVGID_44_">
			<use xlink:href="#SVGID_43_"  style="overflow:visible;"/>
		</clipPath>
		<g class="st21">
			<defs>
				<rect id="SVGID_45_" x="-75.3" y="-206.4" width="4734.7" height="3551"/>
			</defs>
			<use xlink:href="#SVGID_45_"  style="overflow:visible;fill:#213443;"/>
			<clipPath id="SVGID_46_">
				<use xlink:href="#SVGID_45_"  style="overflow:visible;"/>
			</clipPath>
			<rect x="810" y="129.5" class="st22" width="109.5" height="122.3"/>
		</g>
	</g>
	<g>
		<defs>
			<path id="SVGID_47_" d="M762.2,164.1c2.2-0.3,5.6-0.7,7.1-0.7c2.3,0,4.4,0.4,4.6,2.7c0,1.3-2.4,11-2.9,13.3l-4.9,21.4
				c-2,8.8-4.1,17.9-6,25.2h12.5l7-33.9c21.4-22.3,29.6-29.6,34.7-29.6c2.3,0,3.8,1.2,3.9,3.9c0.1,3.9-2.3,12.8-3.2,15.4l-7.2,24.8
				c-1.6,5.6-2.8,10.6-2.7,14.2c0.2,5.4,3.5,7.8,8.4,7.8c9.1,0,15.7-9.5,21.5-18.8l-1.7-3.1c-2.3,3.8-7.7,12-12,12
				c-1.4,0-2.6-0.9-2.7-3.2c-0.1-2.9,1.1-7.2,1.9-10.1l8-29c2.1-8,3.2-13.1,3.1-15.9c-0.2-5.4-3.4-7.9-8.2-7.9
				c-8.2,0-19.1,6-42.2,32.6h-0.3l2.9-13c1.6-7.1,3.1-14.5,4.6-19.6c-8,2.9-19.4,6.1-26.5,7.5L762.2,164.1"/>
		</defs>
		<use xlink:href="#SVGID_47_"  style="overflow:visible;fill-rule:evenodd;clip-rule:evenodd;fill:#213443;"/>
		<clipPath id="SVGID_48_">
			<use xlink:href="#SVGID_47_"  style="overflow:visible;"/>
		</clipPath>
		<g class="st23">
			<defs>
				<rect id="SVGID_49_" x="-75.3" y="-206.4" width="4734.7" height="3551"/>
			</defs>
			<use xlink:href="#SVGID_49_"  style="overflow:visible;fill:#213443;"/>
			<clipPath id="SVGID_50_">
				<use xlink:href="#SVGID_49_"  style="overflow:visible;"/>
			</clipPath>
			<rect x="737.1" y="129.5" class="st24" width="121.3" height="122.3"/>
		</g>
	</g>
	<g>
		<defs>
			<path id="SVGID_51_" d="M898.3,141c0-6.4,5.1-11,11.3-11c6,0,11.2,4.7,11.2,11c0,6.4-5.1,11.1-11.2,11.1
				C903.4,152.2,898.3,147.5,898.3,141z M909.5,150.3c5,0,9-3.9,9-9.3c0-5.2-4-9.2-9-9.2c-5.1,0-9,4-9,9.2
				C900.5,146.4,904.4,150.3,909.5,150.3z M907.2,147.5h-2v-12.8h4.9c3,0,4.5,1.1,4.5,3.6c0,2.3-1.4,3.3-3.3,3.5l3.6,5.6h-2.2
				l-3.4-5.5h-2.2V147.5z M909.5,140.3c1.7,0,3.1-0.1,3.1-2.1c0-1.6-1.4-1.9-2.8-1.9h-2.6v4H909.5z"/>
		</defs>
		<use xlink:href="#SVGID_51_"  style="overflow:visible;fill-rule:evenodd;clip-rule:evenodd;fill:#213443;"/>
		<clipPath id="SVGID_52_">
			<use xlink:href="#SVGID_51_"  style="overflow:visible;"/>
		</clipPath>
		<g class="st25">
			<defs>
				<rect id="SVGID_53_" x="-75.3" y="-206.4" width="4734.7" height="3551"/>
			</defs>
			<use xlink:href="#SVGID_53_"  style="overflow:visible;fill:#213443;"/>
			<clipPath id="SVGID_54_">
				<use xlink:href="#SVGID_53_"  style="overflow:visible;"/>
			</clipPath>
			<rect x="875.2" y="106.9" class="st26" width="68.7" height="68.4"/>
		</g>
	</g>
	<g>
		<path class="st27" d="M690.2,316.5c0.6,0,1.1,0.2,1.5,0.7l4.2,4.5c-2.3,2.9-5.2,5.1-8.6,6.6c-3.4,1.5-7.4,2.3-12.2,2.3
			c-4.2,0-8.1-0.7-11.4-2.2s-6.3-3.5-8.7-6c-2.4-2.6-4.2-5.7-5.5-9.2c-1.3-3.6-1.9-7.5-1.9-11.7c0-4.3,0.7-8.2,2.1-11.8
			c1.4-3.6,3.4-6.6,6-9.2c2.6-2.6,5.7-4.6,9.3-6c3.6-1.4,7.6-2.2,11.9-2.2c4.2,0,7.9,0.7,11.1,2c3.2,1.4,5.9,3.2,8.2,5.4l-3.6,4.9
			c-0.2,0.3-0.5,0.6-0.8,0.8c-0.3,0.2-0.8,0.4-1.4,0.4c-0.6,0-1.2-0.2-1.9-0.7c-0.6-0.5-1.4-1-2.4-1.5c-1-0.6-2.2-1.1-3.7-1.5
			c-1.5-0.5-3.4-0.7-5.7-0.7c-2.7,0-5.2,0.5-7.4,1.4c-2.3,0.9-4.2,2.3-5.8,4c-1.6,1.7-2.9,3.9-3.8,6.3c-0.9,2.5-1.4,5.3-1.4,8.4
			c0,3.2,0.5,6.1,1.4,8.6c0.9,2.5,2.1,4.6,3.7,6.3s3.4,3,5.5,3.9c2.1,0.9,4.4,1.4,6.8,1.4c1.4,0,2.8-0.1,3.9-0.2
			c1.2-0.2,2.3-0.4,3.2-0.8c1-0.3,1.9-0.8,2.8-1.3c0.9-0.5,1.8-1.2,2.6-2c0.3-0.2,0.5-0.4,0.8-0.6
			C689.6,316.6,689.9,316.5,690.2,316.5z"/>
		<path class="st27" d="M703.4,330v-40.5h5.7c1,0,1.7,0.2,2.1,0.6c0.4,0.4,0.7,1,0.8,1.9l0.6,4.9c1.4-2.5,3.1-4.5,5.1-5.9
			c1.9-1.4,4.1-2.2,6.6-2.2c2,0,3.7,0.5,5,1.4l-1.3,7.3c-0.1,0.5-0.3,0.8-0.5,1c-0.3,0.2-0.6,0.3-1.1,0.3c-0.4,0-0.9-0.1-1.6-0.3
			c-0.7-0.2-1.6-0.3-2.7-0.3c-2,0-3.8,0.6-5.2,1.7s-2.7,2.8-3.7,4.9V330H703.4z"/>
		<path class="st27" d="M750,341.1c-0.3,0.7-0.7,1.2-1.1,1.6s-1.2,0.5-2.1,0.5h-7.3l7.6-16.2l-16.4-37.5h8.5c0.8,0,1.4,0.2,1.8,0.6
			c0.4,0.4,0.7,0.8,0.9,1.3l8.7,21c0.3,0.7,0.5,1.4,0.8,2.1c0.2,0.7,0.4,1.5,0.6,2.2c0.2-0.8,0.4-1.5,0.7-2.2
			c0.2-0.7,0.5-1.4,0.8-2.2l8.1-21c0.2-0.5,0.6-1,1-1.3c0.5-0.3,1-0.5,1.6-0.5h7.8L750,341.1z"/>
		<path class="st27" d="M777.8,343.2v-53.8h6c0.6,0,1.2,0.1,1.6,0.4c0.4,0.3,0.7,0.7,0.9,1.3l0.8,3.8c1.6-1.9,3.5-3.4,5.6-4.5
			c2.1-1.2,4.6-1.7,7.4-1.7c2.2,0,4.2,0.5,6.1,1.4s3.4,2.3,4.7,4c1.3,1.8,2.4,3.9,3.1,6.5c0.7,2.6,1.1,5.5,1.1,8.8
			c0,3-0.4,5.8-1.2,8.4c-0.8,2.6-2,4.8-3.5,6.7c-1.5,1.9-3.3,3.4-5.5,4.4c-2.1,1.1-4.5,1.6-7.2,1.6c-2.3,0-4.2-0.3-5.8-1
			c-1.6-0.7-3-1.7-4.3-2.9v16.6H777.8z M796.8,296.4c-2,0-3.8,0.4-5.2,1.3s-2.8,2.1-4,3.6v18.2c1.1,1.4,2.3,2.3,3.6,2.9
			c1.3,0.5,2.7,0.8,4.2,0.8c1.5,0,2.8-0.3,4-0.8s2.2-1.4,3-2.5c0.8-1.1,1.5-2.6,1.9-4.3c0.4-1.7,0.7-3.8,0.7-6.1
			c0-2.4-0.2-4.4-0.6-6c-0.4-1.6-0.9-3-1.6-4c-0.7-1-1.6-1.8-2.6-2.3C799.2,296.7,798.1,296.4,796.8,296.4z"/>
		<path class="st27" d="M835.8,330.6c-3.5,0-6.2-1-8.1-3c-1.9-2-2.8-4.7-2.8-8.2v-22.6h-4.1c-0.5,0-1-0.2-1.4-0.5
			c-0.4-0.3-0.6-0.9-0.6-1.5v-3.9l6.5-1.1l2.1-11.1c0.1-0.5,0.3-0.9,0.7-1.2s0.9-0.4,1.4-0.4h5.1v12.8h10.7v7h-10.7v22
			c0,1.3,0.3,2.3,0.9,3c0.6,0.7,1.5,1.1,2.5,1.1c0.6,0,1.1-0.1,1.5-0.2s0.8-0.3,1.1-0.5c0.3-0.2,0.6-0.3,0.8-0.5
			c0.2-0.1,0.5-0.2,0.7-0.2c0.3,0,0.5,0.1,0.7,0.2c0.2,0.1,0.4,0.4,0.6,0.7l2.9,4.7c-1.4,1.2-3.1,2.1-4.9,2.7
			C839.7,330.3,837.8,330.6,835.8,330.6z"/>
		<path class="st27" d="M870.4,288.8c3,0,5.8,0.5,8.2,1.5c2.5,1,4.6,2.4,6.3,4.1c1.7,1.8,3.1,4,4,6.6c0.9,2.6,1.4,5.5,1.4,8.7
			c0,3.2-0.5,6.1-1.4,8.7s-2.3,4.8-4,6.6c-1.7,1.8-3.8,3.2-6.3,4.2c-2.5,1-5.2,1.5-8.2,1.5s-5.8-0.5-8.3-1.5c-2.5-1-4.6-2.4-6.3-4.2
			c-1.8-1.8-3.1-4-4.1-6.6c-1-2.6-1.4-5.5-1.4-8.7c0-3.2,0.5-6.1,1.4-8.7c1-2.6,2.3-4.8,4.1-6.6c1.8-1.8,3.9-3.2,6.3-4.1
			C864.6,289.3,867.3,288.8,870.4,288.8z M870.4,323.1c3.4,0,5.9-1.1,7.5-3.4c1.6-2.3,2.4-5.6,2.4-10c0-4.4-0.8-7.7-2.4-10
			c-1.6-2.3-4.1-3.4-7.5-3.4c-3.4,0-6,1.2-7.6,3.5c-1.6,2.3-2.4,5.6-2.4,10s0.8,7.7,2.4,9.9C864.4,322,866.9,323.1,870.4,323.1z"/>
		<path class="st27" d="M949.8,272.9v8.5h-25.3v15.8h19.9v8.2h-19.9v16.2h25.3v8.5h-36v-57.1H949.8z"/>
		<path class="st27" d="M968,309.1l-13.3-19.6h9.4c0.7,0,1.2,0.1,1.6,0.3c0.3,0.2,0.6,0.5,0.9,1l8.5,13.5c0.1-0.4,0.3-0.9,0.5-1.3
			c0.2-0.4,0.4-0.9,0.7-1.3l6.8-10.7c0.3-0.5,0.6-0.9,1-1.1c0.3-0.2,0.8-0.4,1.3-0.4h9L981,308.7l13.9,21.3h-9.4
			c-0.7,0-1.3-0.2-1.7-0.6s-0.8-0.8-1.1-1.3l-8.6-14.1c-0.2,0.9-0.6,1.7-1,2.4l-7.6,11.7c-0.3,0.4-0.6,0.9-1.1,1.2
			c-0.4,0.4-0.9,0.6-1.6,0.6h-8.7L968,309.1z"/>
		<path class="st27" d="M1027.2,298.1c-0.3,0.4-0.6,0.7-0.8,0.9c-0.3,0.2-0.7,0.3-1.2,0.3c-0.5,0-1-0.2-1.5-0.5
			c-0.5-0.3-1-0.6-1.7-1c-0.7-0.4-1.4-0.7-2.4-1c-0.9-0.3-2-0.5-3.4-0.5c-1.7,0-3.2,0.3-4.5,0.9c-1.3,0.6-2.4,1.5-3.2,2.7
			c-0.9,1.2-1.5,2.6-1.9,4.2c-0.4,1.6-0.6,3.5-0.6,5.6c0,2.2,0.2,4.1,0.7,5.8s1.1,3.1,2,4.2s1.9,2,3.2,2.6c1.2,0.6,2.6,0.9,4.2,0.9
			s2.8-0.2,3.8-0.6c1-0.4,1.8-0.8,2.4-1.3c0.7-0.5,1.2-0.9,1.7-1.3c0.5-0.4,1-0.6,1.6-0.6c0.8,0,1.4,0.3,1.8,0.9l2.8,3.6
			c-1.1,1.3-2.3,2.3-3.5,3.2s-2.6,1.5-3.9,2.1c-1.4,0.5-2.8,0.9-4.2,1.1c-1.4,0.2-2.9,0.3-4.3,0.3c-2.5,0-4.9-0.5-7.1-1.4
			c-2.2-0.9-4.1-2.3-5.8-4.1c-1.6-1.8-2.9-4-3.9-6.6c-1-2.6-1.4-5.5-1.4-8.9c0-3,0.4-5.7,1.3-8.3c0.9-2.5,2.1-4.7,3.8-6.6
			c1.7-1.9,3.7-3.3,6.2-4.4c2.4-1.1,5.3-1.6,8.5-1.6c3,0,5.7,0.5,8,1.5c2.3,1,4.3,2.4,6.1,4.2L1027.2,298.1z"/>
		<path class="st27" d="M1036.4,330v-58.7h9.8v22.6c1.6-1.5,3.3-2.7,5.2-3.6c1.9-0.9,4.1-1.4,6.7-1.4c2.2,0,4.2,0.4,5.9,1.1
			c1.7,0.8,3.1,1.8,4.3,3.2s2,3,2.6,4.9c0.6,1.9,0.9,4,0.9,6.2V330h-9.8v-25.8c0-2.5-0.6-4.4-1.7-5.7c-1.1-1.4-2.9-2-5.2-2
			c-1.7,0-3.3,0.4-4.7,1.1c-1.5,0.8-2.9,1.8-4.2,3.1V330H1036.4z"/>
		<path class="st27" d="M1113.1,330h-4.4c-0.9,0-1.6-0.1-2.2-0.4c-0.5-0.3-0.9-0.8-1.2-1.7l-0.9-2.9c-1,0.9-2,1.7-3,2.4
			c-1,0.7-2,1.3-3.1,1.8c-1.1,0.5-2.2,0.8-3.4,1.1c-1.2,0.2-2.5,0.4-4,0.4c-1.7,0-3.3-0.2-4.7-0.7s-2.7-1.2-3.7-2.1
			c-1-0.9-1.9-2.1-2.4-3.4s-0.9-3-0.9-4.8c0-1.5,0.4-3,1.2-4.5c0.8-1.5,2.1-2.8,4-4s4.4-2.2,7.5-3c3.1-0.8,7-1.2,11.6-1.2v-2.4
			c0-2.7-0.6-4.8-1.7-6.1c-1.1-1.3-2.8-2-5-2c-1.6,0-2.9,0.2-4,0.6c-1.1,0.4-2,0.8-2.7,1.2s-1.5,0.9-2.2,1.2s-1.4,0.6-2.2,0.6
			c-0.7,0-1.2-0.2-1.7-0.5c-0.5-0.3-0.9-0.8-1.1-1.3l-1.8-3.1c4.7-4.3,10.3-6.4,16.9-6.4c2.4,0,4.5,0.4,6.3,1.2
			c1.9,0.8,3.4,1.9,4.7,3.2c1.3,1.4,2.3,3,2.9,5c0.7,1.9,1,4,1,6.3V330z M1094.1,323.9c1,0,1.9-0.1,2.8-0.3c0.8-0.2,1.6-0.5,2.4-0.8
			c0.8-0.4,1.5-0.8,2.2-1.3c0.7-0.5,1.4-1.2,2.1-1.9v-6.8c-2.8,0-5.2,0.2-7.1,0.5s-3.4,0.8-4.6,1.4c-1.2,0.6-2,1.2-2.5,1.9
			s-0.7,1.6-0.7,2.4c0,1.7,0.5,3,1.5,3.7C1091.2,323.6,1092.5,323.9,1094.1,323.9z"/>
		<path class="st27" d="M1122.7,330v-40.5h6c1.3,0,2.1,0.6,2.5,1.8l0.7,3.2c0.8-0.8,1.7-1.6,2.6-2.3s1.9-1.3,2.9-1.8
			c1-0.5,2.1-0.9,3.3-1.1c1.2-0.3,2.4-0.4,3.8-0.4c2.2,0,4.2,0.4,5.9,1.1c1.7,0.8,3.1,1.8,4.3,3.2s2,3,2.6,4.9
			c0.6,1.9,0.9,4,0.9,6.2V330h-9.8v-25.8c0-2.5-0.6-4.4-1.7-5.7c-1.1-1.4-2.9-2-5.2-2c-1.7,0-3.3,0.4-4.7,1.1
			c-1.5,0.8-2.9,1.8-4.2,3.1V330H1122.7z"/>
		<path class="st27" d="M1181.6,288.8c1.7,0,3.4,0.2,4.9,0.5c1.5,0.4,2.9,0.9,4.2,1.6h11.7v3.6c0,0.6-0.2,1.1-0.5,1.4
			c-0.3,0.3-0.9,0.6-1.6,0.7l-3.6,0.7c0.3,0.7,0.5,1.4,0.6,2.2s0.2,1.6,0.2,2.4c0,2-0.4,3.8-1.2,5.4c-0.8,1.6-1.9,3-3.3,4.1
			c-1.4,1.1-3.1,2-5,2.6c-1.9,0.6-4,0.9-6.3,0.9c-1.5,0-3-0.1-4.5-0.4c-1.3,0.8-1.9,1.6-1.9,2.6c0,0.8,0.4,1.4,1.1,1.8
			c0.8,0.4,1.7,0.7,3,0.8c1.2,0.2,2.6,0.2,4.2,0.2c1.6,0,3.1,0.1,4.8,0.2c1.6,0.1,3.2,0.4,4.8,0.7s2.9,0.9,4.2,1.6
			c1.2,0.7,2.2,1.7,3,2.9c0.8,1.2,1.1,2.8,1.1,4.7c0,1.8-0.4,3.5-1.3,5.2c-0.9,1.7-2.2,3.2-3.8,4.5c-1.7,1.3-3.7,2.4-6.1,3.2
			c-2.4,0.8-5.2,1.2-8.3,1.2c-3.1,0-5.8-0.3-8-0.9c-2.3-0.6-4.1-1.4-5.6-2.4c-1.5-1-2.6-2.1-3.3-3.4c-0.7-1.3-1.1-2.6-1.1-4
			c0-1.9,0.6-3.5,1.7-4.8c1.2-1.3,2.8-2.3,4.8-3.1c-1-0.6-1.8-1.3-2.4-2.2c-0.6-0.9-0.9-2.1-0.9-3.6c0-0.6,0.1-1.2,0.3-1.9
			c0.2-0.6,0.5-1.3,1-1.9s1-1.2,1.6-1.8s1.4-1.1,2.3-1.5c-2.1-1.1-3.7-2.6-4.8-4.4c-1.2-1.8-1.8-4-1.8-6.5c0-2,0.4-3.8,1.2-5.4
			c0.8-1.6,1.9-3,3.4-4.1c1.4-1.1,3.1-2,5.1-2.6S1179.3,288.8,1181.6,288.8z M1192.3,331.7c0-0.8-0.2-1.5-0.7-2
			c-0.5-0.5-1.1-0.9-1.9-1.2c-0.8-0.3-1.8-0.5-2.9-0.6c-1.1-0.1-2.3-0.2-3.5-0.2s-2.5,0-3.8,0c-1.3,0-2.6-0.1-3.8-0.4
			c-1.1,0.6-2,1.3-2.7,2.2c-0.7,0.8-1,1.8-1,2.9c0,0.7,0.2,1.4,0.5,2c0.4,0.6,0.9,1.2,1.7,1.6c0.8,0.4,1.8,0.8,3,1
			c1.2,0.2,2.8,0.4,4.5,0.4c1.8,0,3.4-0.1,4.7-0.4c1.3-0.3,2.4-0.7,3.3-1.2c0.9-0.5,1.5-1.1,1.9-1.8
			C1192.1,333.3,1192.3,332.5,1192.3,331.7z M1181.6,308.8c1.2,0,2.3-0.2,3.2-0.5c0.9-0.3,1.6-0.8,2.2-1.4c0.6-0.6,1-1.3,1.3-2.1
			c0.3-0.8,0.5-1.7,0.5-2.7c0-2-0.6-3.6-1.8-4.8s-3-1.8-5.4-1.8s-4.2,0.6-5.4,1.8s-1.8,2.8-1.8,4.8c0,0.9,0.2,1.8,0.5,2.6
			c0.3,0.8,0.8,1.5,1.3,2.1c0.6,0.6,1.3,1.1,2.3,1.4C1179.4,308.6,1180.4,308.8,1181.6,308.8z"/>
		<path class="st27" d="M1225.2,288.8c2.6,0,4.9,0.4,7.1,1.2c2.1,0.8,4,2,5.5,3.6s2.8,3.5,3.6,5.8c0.9,2.3,1.3,4.9,1.3,7.8
			c0,0.7,0,1.3-0.1,1.8c-0.1,0.5-0.2,0.9-0.4,1.1c-0.2,0.3-0.4,0.5-0.7,0.6c-0.3,0.1-0.7,0.2-1.1,0.2h-25c0.3,4.2,1.4,7.2,3.4,9.2
			c1.9,1.9,4.5,2.9,7.7,2.9c1.6,0,2.9-0.2,4.1-0.6c1.1-0.4,2.1-0.8,3-1.2c0.9-0.4,1.6-0.9,2.3-1.2c0.6-0.4,1.3-0.6,1.9-0.6
			c0.4,0,0.7,0.1,1,0.2c0.3,0.2,0.5,0.4,0.8,0.7l2.8,3.6c-1.1,1.3-2.3,2.3-3.6,3.2s-2.7,1.5-4.2,2.1s-2.9,0.9-4.5,1.1
			s-3,0.3-4.4,0.3c-2.8,0-5.4-0.5-7.9-1.4s-4.5-2.3-6.3-4.1c-1.8-1.8-3.2-4.1-4.2-6.8c-1-2.7-1.5-5.8-1.5-9.4c0-2.8,0.4-5.4,1.3-7.8
			s2.2-4.6,3.9-6.4c1.7-1.8,3.7-3.2,6.1-4.3C1219.5,289.4,1222.2,288.8,1225.2,288.8z M1225.4,295.8c-2.8,0-5.1,0.8-6.7,2.4
			c-1.6,1.6-2.6,3.9-3.1,6.8h18.3c0-1.3-0.2-2.5-0.5-3.6c-0.3-1.1-0.9-2.1-1.6-2.9c-0.7-0.8-1.6-1.5-2.7-2
			S1226.9,295.8,1225.4,295.8z"/>
	</g>
</g>
</svg>
